# xmcd CD database file
#
# Track frame offsets:
#	150
#	12162
#	22202
#	33320
#	44702
#	53175
#	69517
#	78502
#	91410
#	102460
#	111675
#	121947
#	134887
#	145372
#	156537
#	164847
#	176195
#	185722
#	199490
#	210250
#	219497
#	230455
#	237800
#	255460
#	267997
#
# Disc length: 3791 seconds
#
# Revision: 3
# Processed by: cddbd v1.5.2PL0 Copyright (c) Steve Scherf et al.
# Submitted via: CDex 1.50Beta5
#
DISCID=8c0ecd19
DTITLE=Various Artist - 25 Greatest Bluegrass Hits
DYEAR=2000
DGENRE=Bluegrass
TTITLE0=The Osborne Brothers - Rocky Top
TTITLE1=Don Reno and Bill Harrell - I Know You're Married (But I Love You Still)
TTITLE2=Lester Flatt and the Nashville Grass - Why Did You Wander
TTITLE3=Mac Wiseman - I'm Using My Bible For A Roadmap
TTITLE4=Benny Martin - Blue Moon Of Kentucky
TTITLE5=The Osborne Brothers - I Hear A Sweet Voice Calling
TTITLE6=The Pinnacle Boys - Scotland
TTITLE7=Lester Flatt and the Nashville Grass - Cabin On The Hill
TTITLE8=The Osborne Brothers - Tennessee Hound Dog
TTITLE9=Don Reno and Bill Harrell - Little Rock Getaway
TTITLE10=Mac Wiseman - Love Letters In The Sand
TTITLE11=Carl Story and His Rambling Mountaineers - My Lord Keeps A Record
TTITLE12=Don Reno and The Tennessee Cut-Ups - Are You Missing Me
TTITLE13=The Osborne Brothers - Your Love Is Like A Flower
TTITLE14=Benny Martin - Foggy Mountain Breakdown
TTITLE15=The Pinnacle Boys - If I Should Wander Back Tonight
TTITLE16=Carl Story and His Rambling Mountaineers - Light At The River
TTITLE17=Mac Wiseman - I Wonder How The Old Folks Are At Home
TTITLE18=The Osborne Brothers - Sunny Side Of The Mountain
TTITLE19=Mac Wiseman - Jimmy Brown, The Newsboy
TTITLE20=The Osborne Brothers - Pain In My Heart
TTITLE21=Lester Flatt and The Nashville Grass - Randy Lynn Rag
TTITLE22=The Osborne Brothers - White Dove
TTITLE23=Carl Story and His Rambling Mountaineers - Rank Strangers
TTITLE24=The Osborne Brothers - A Vision Of Mother
EXTD=YEAR: 2000
EXTT0=
EXTT1=
EXTT2=
EXTT3=
EXTT4=
EXTT5=
EXTT6=
EXTT7=
EXTT8=
EXTT9=
EXTT10=
EXTT11=
EXTT12=
EXTT13=
EXTT14=
EXTT15=
EXTT16=
EXTT17=
EXTT18=
EXTT19=
EXTT20=
EXTT21=
EXTT22=
EXTT23=
EXTT24=
PLAYORDER=
